# xmcd
#
# Track frame offsets:
#	150
#	17184
#	31051
#	47476
#	67394
#	85304
#	101541
#	118156
#	133154
#	148442
#	162641
#	176187
#	192190
#	205929
#	222954
#	238296
#	254854
#
# Disc length: 3592 seconds
#
# Revision: 1
# Processed by: cddbd v1.5.2PL0 Copyright (c) Steve Scherf et al.
# Submitted via: audiograbber 1.83.01
#
DISCID=170e0611
DTITLE=Various Artist - Now Country 7 (Canadian Edition)
DYEAR=2012
DGENRE=Country
TTITLE0=Johnny Reid - Fire It Up
TTITLE1=Dierks Bentley - 5-1-5-0
TTITLE2=Keith Urban - You Gonna Fly
TTITLE3=Eric Church - Springsteen
TTITLE4=Dean Brody - Canadian Girls
TTITLE5=Luke Bryan - Drunk On You
TTITLE6=Lady Antebellum - Just A Kiss
TTITLE7=Miranda Lambert - Baggage Claim
TTITLE8=The Stellas - Riding In The Back Seat
TTITLE9=Thompson Square - Are You Gonna Kiss Me Or Not
TTITLE10=Zac Brown Band - The Wind
TTITLE11=Terri Clark - Wrecking Ball
TTITLE12=Billy Currington - Pretty Good At Drinkin' Beer
TTITLE13=Alan Jackson - So You Don't Have To Love Me Anymore
TTITLE14=Chad Brownlee - Smoke In The Rain
TTITLE15=Dallas Smith - If It Gets You Where You Wanna Go
TTITLE16=Blake Shelton - Over
EXTD=
EXTT0=
EXTT1=
EXTT2=
EXTT3=
EXTT4=
EXTT5=
EXTT6=
EXTT7=
EXTT8=
EXTT9=
EXTT10=
EXTT11=
EXTT12=
EXTT13=
EXTT14=
EXTT15=
EXTT16=
PLAYORDER=
